<mxfile host="app.diagrams.net" modified="2023-11-28T10:05:39.748Z" agent="Mozilla/5.0 (Windows NT 10.0; Win64; x64) AppleWebKit/537.36 (KHTML, like Gecko) Chrome/119.0.0.0 Safari/537.36" etag="-5HivCGQmRIeKXiUo99q" version="22.1.4" type="device">
  <diagram id="MS7YwUnPkC11Sn9B1dZc" name="Page-1">
    <mxGraphModel dx="1353" dy="561" grid="1" gridSize="10" guides="1" tooltips="1" connect="1" arrows="1" fold="1" page="1" pageScale="1" pageWidth="827" pageHeight="1169" math="0" shadow="0">
      <root>
        <mxCell id="0" />
        <mxCell id="1" parent="0" />
        <mxCell id="1JUa6F9GDTa_YqWS5XJl-1" value="Linelife" style="shape=umlLifeline;perimeter=lifelinePerimeter;whiteSpace=wrap;html=1;container=1;dropTarget=0;collapsible=0;recursiveResize=0;outlineConnect=0;portConstraint=eastwest;newEdgeStyle={&quot;curved&quot;:0,&quot;rounded&quot;:0};" parent="1" vertex="1">
          <mxGeometry x="520" y="90" width="100" height="620" as="geometry" />
        </mxCell>
        <mxCell id="lPSIOjnodYMiK2jASAIS-10" value="" style="html=1;points=[[0,0,0,0,5],[0,1,0,0,-5],[1,0,0,0,5],[1,1,0,0,-5]];perimeter=orthogonalPerimeter;outlineConnect=0;targetShapes=umlLifeline;portConstraint=eastwest;newEdgeStyle={&quot;curved&quot;:0,&quot;rounded&quot;:0};" vertex="1" parent="1JUa6F9GDTa_YqWS5XJl-1">
          <mxGeometry x="50" y="275" width="10" height="40" as="geometry" />
        </mxCell>
        <mxCell id="lPSIOjnodYMiK2jASAIS-11" value="&lt;font style=&quot;font-size: 14px;&quot;&gt;5-Vérifier si le client est authentifié&lt;/font&gt;" style="html=1;align=left;spacingLeft=2;endArrow=block;rounded=0;edgeStyle=orthogonalEdgeStyle;curved=0;rounded=0;" edge="1" target="lPSIOjnodYMiK2jASAIS-10" parent="1JUa6F9GDTa_YqWS5XJl-1">
          <mxGeometry relative="1" as="geometry">
            <mxPoint x="55" y="255" as="sourcePoint" />
            <Array as="points">
              <mxPoint x="85" y="285" />
            </Array>
          </mxGeometry>
        </mxCell>
        <mxCell id="1JUa6F9GDTa_YqWS5XJl-3" value="" style="shape=umlLifeline;perimeter=lifelinePerimeter;whiteSpace=wrap;html=1;container=1;dropTarget=0;collapsible=0;recursiveResize=0;outlineConnect=0;portConstraint=eastwest;newEdgeStyle={&quot;curved&quot;:0,&quot;rounded&quot;:0};participant=umlActor;" parent="1" vertex="1">
          <mxGeometry x="880" y="90" width="30" height="620" as="geometry" />
        </mxCell>
        <mxCell id="1JUa6F9GDTa_YqWS5XJl-4" value="&lt;b&gt;CLIENT&lt;/b&gt;" style="text;html=1;strokeColor=none;fillColor=none;align=center;verticalAlign=middle;whiteSpace=wrap;rounded=0;" parent="1" vertex="1">
          <mxGeometry x="130" y="70" width="60" height="30" as="geometry" />
        </mxCell>
        <mxCell id="1JUa6F9GDTa_YqWS5XJl-5" value="&lt;b&gt;Système&lt;/b&gt;" style="text;html=1;strokeColor=none;fillColor=none;align=center;verticalAlign=middle;whiteSpace=wrap;rounded=0;" parent="1" vertex="1">
          <mxGeometry x="520" y="60" width="120" height="30" as="geometry" />
        </mxCell>
        <mxCell id="1JUa6F9GDTa_YqWS5XJl-7" value="" style="endArrow=classic;html=1;rounded=0;" parent="1" edge="1">
          <mxGeometry width="50" height="50" relative="1" as="geometry">
            <mxPoint x="160" y="180" as="sourcePoint" />
            <mxPoint x="569.4999999999998" y="180" as="targetPoint" />
            <Array as="points">
              <mxPoint x="280" y="180" />
            </Array>
          </mxGeometry>
        </mxCell>
        <mxCell id="1JUa6F9GDTa_YqWS5XJl-8" value="&lt;font style=&quot;font-size: 14px;&quot;&gt;1-Accéder_page_réservation&lt;/font&gt;" style="text;html=1;strokeColor=none;fillColor=none;align=center;verticalAlign=middle;whiteSpace=wrap;rounded=0;" parent="1" vertex="1">
          <mxGeometry x="245" y="150" width="245" height="30" as="geometry" />
        </mxCell>
        <mxCell id="1JUa6F9GDTa_YqWS5XJl-12" value="" style="endArrow=classic;html=1;rounded=0;" parent="1" target="1JUa6F9GDTa_YqWS5XJl-1" edge="1">
          <mxGeometry width="50" height="50" relative="1" as="geometry">
            <mxPoint x="155.06043478260875" y="290" as="sourcePoint" />
            <mxPoint x="564.9299999999997" y="290" as="targetPoint" />
            <Array as="points">
              <mxPoint x="345.43" y="290" />
              <mxPoint x="425.43" y="290" />
            </Array>
          </mxGeometry>
        </mxCell>
        <mxCell id="1JUa6F9GDTa_YqWS5XJl-14" value="" style="endArrow=block;dashed=1;endFill=0;endSize=12;html=1;rounded=0;" parent="1" edge="1">
          <mxGeometry width="160" relative="1" as="geometry">
            <mxPoint x="564.5" y="240" as="sourcePoint" />
            <mxPoint x="155.5" y="240" as="targetPoint" />
          </mxGeometry>
        </mxCell>
        <mxCell id="1JUa6F9GDTa_YqWS5XJl-16" value="&lt;b&gt;Association&lt;/b&gt;" style="text;html=1;strokeColor=none;fillColor=none;align=center;verticalAlign=middle;whiteSpace=wrap;rounded=0;" parent="1" vertex="1">
          <mxGeometry x="820" y="60" width="120" height="30" as="geometry" />
        </mxCell>
        <mxCell id="1JUa6F9GDTa_YqWS5XJl-18" value="" style="shape=umlLifeline;perimeter=lifelinePerimeter;whiteSpace=wrap;html=1;container=1;dropTarget=0;collapsible=0;recursiveResize=0;outlineConnect=0;portConstraint=eastwest;newEdgeStyle={&quot;curved&quot;:0,&quot;rounded&quot;:0};participant=umlActor;" parent="1" vertex="1">
          <mxGeometry x="140" y="115" width="30" height="595" as="geometry" />
        </mxCell>
        <mxCell id="1JUa6F9GDTa_YqWS5XJl-19" value="&lt;font style=&quot;font-size: 14px;&quot;&gt;4-faire une réservation&lt;/font&gt;" style="text;html=1;strokeColor=none;fillColor=none;align=center;verticalAlign=middle;whiteSpace=wrap;rounded=0;" parent="1" vertex="1">
          <mxGeometry x="245" y="260" width="220" height="30" as="geometry" />
        </mxCell>
        <mxCell id="1JUa6F9GDTa_YqWS5XJl-37" value="" style="endArrow=classic;html=1;rounded=0;" parent="1" edge="1">
          <mxGeometry width="50" height="50" relative="1" as="geometry">
            <mxPoint x="900" y="560" as="sourcePoint" />
            <mxPoint x="570" y="560" as="targetPoint" />
            <Array as="points" />
          </mxGeometry>
        </mxCell>
        <mxCell id="1JUa6F9GDTa_YqWS5XJl-38" value="9-Envoyer mail_résevation_déclinée" style="text;html=1;strokeColor=none;fillColor=none;align=center;verticalAlign=middle;whiteSpace=wrap;rounded=0;" parent="1" vertex="1">
          <mxGeometry x="230" y="610" width="270" height="30" as="geometry" />
        </mxCell>
        <mxCell id="1JUa6F9GDTa_YqWS5XJl-40" value="alt" style="shape=umlFrame;whiteSpace=wrap;html=1;pointerEvents=0;" parent="1" vertex="1">
          <mxGeometry x="126.25" y="200" width="482.5" height="115" as="geometry" />
        </mxCell>
        <mxCell id="1JUa6F9GDTa_YqWS5XJl-43" value="&lt;span style=&quot;color: rgb(0, 0, 0); font-family: Helvetica; font-size: 11px; font-style: normal; font-variant-ligatures: normal; font-variant-caps: normal; font-weight: 400; letter-spacing: normal; orphans: 2; text-align: left; text-indent: 0px; text-transform: none; widows: 2; word-spacing: 0px; -webkit-text-stroke-width: 0px; background-color: rgb(255, 255, 255); text-decoration-thickness: initial; text-decoration-style: initial; text-decoration-color: initial; float: none; display: inline !important;&quot;&gt;8-Décliner la réservation si événement clôturé&lt;/span&gt;" style="text;whiteSpace=wrap;html=1;" parent="1" vertex="1">
          <mxGeometry x="630" y="520" width="240" height="40" as="geometry" />
        </mxCell>
        <mxCell id="1JUa6F9GDTa_YqWS5XJl-57" value="" style="endArrow=block;dashed=1;endFill=0;endSize=12;html=1;rounded=0;" parent="1" edge="1">
          <mxGeometry width="160" relative="1" as="geometry">
            <mxPoint x="569.75" y="400" as="sourcePoint" />
            <mxPoint x="150.25" y="400" as="targetPoint" />
            <Array as="points" />
          </mxGeometry>
        </mxCell>
        <mxCell id="1JUa6F9GDTa_YqWS5XJl-58" value="&lt;span style=&quot;color: rgb(0, 0, 0); font-family: Helvetica; font-style: normal; font-variant-ligatures: normal; font-variant-caps: normal; font-weight: 400; letter-spacing: normal; orphans: 2; text-align: center; text-indent: 0px; text-transform: none; widows: 2; word-spacing: 0px; -webkit-text-stroke-width: 0px; background-color: rgb(251, 251, 251); text-decoration-thickness: initial; text-decoration-style: initial; text-decoration-color: initial; float: none; display: inline !important;&quot;&gt;&lt;font style=&quot;font-size: 14px;&quot;&gt;3- Rederiger_page_connexion&lt;/font&gt;&lt;/span&gt;" style="text;whiteSpace=wrap;html=1;" parent="1" vertex="1">
          <mxGeometry x="260" y="200" width="290" height="40" as="geometry" />
        </mxCell>
        <mxCell id="lPSIOjnodYMiK2jASAIS-7" value="" style="html=1;points=[[0,0,0,0,5],[0,1,0,0,-5],[1,0,0,0,5],[1,1,0,0,-5]];perimeter=orthogonalPerimeter;outlineConnect=0;targetShapes=umlLifeline;portConstraint=eastwest;newEdgeStyle={&quot;curved&quot;:0,&quot;rounded&quot;:0};" vertex="1" parent="1">
          <mxGeometry x="570" y="230" width="10" height="40" as="geometry" />
        </mxCell>
        <mxCell id="lPSIOjnodYMiK2jASAIS-8" value="&lt;font style=&quot;font-size: 14px;&quot;&gt;2-Vérifier si l&#39;événement est clôturé&amp;nbsp;&lt;/font&gt;" style="html=1;align=left;spacingLeft=2;endArrow=block;rounded=0;edgeStyle=orthogonalEdgeStyle;curved=0;rounded=0;" edge="1" target="lPSIOjnodYMiK2jASAIS-7" parent="1">
          <mxGeometry relative="1" as="geometry">
            <mxPoint x="575" y="210" as="sourcePoint" />
            <Array as="points">
              <mxPoint x="605" y="240" />
            </Array>
          </mxGeometry>
        </mxCell>
        <mxCell id="lPSIOjnodYMiK2jASAIS-9" value="&lt;font style=&quot;font-size: 14px;&quot;&gt;6-Rederiger_page_connexion&lt;/font&gt;" style="text;whiteSpace=wrap;html=1;" vertex="1" parent="1">
          <mxGeometry x="240" y="370" width="210" height="40" as="geometry" />
        </mxCell>
        <mxCell id="lPSIOjnodYMiK2jASAIS-15" value="opt" style="shape=umlFrame;whiteSpace=wrap;html=1;pointerEvents=0;" vertex="1" parent="1">
          <mxGeometry x="140" y="340" width="450" height="140" as="geometry" />
        </mxCell>
        <mxCell id="lPSIOjnodYMiK2jASAIS-16" value="" style="endArrow=block;dashed=1;endFill=0;endSize=12;html=1;rounded=0;" edge="1" parent="1">
          <mxGeometry width="160" relative="1" as="geometry">
            <mxPoint x="570" y="530" as="sourcePoint" />
            <mxPoint x="150.5" y="530" as="targetPoint" />
            <Array as="points" />
          </mxGeometry>
        </mxCell>
        <mxCell id="lPSIOjnodYMiK2jASAIS-17" value="&lt;span style=&quot;color: rgb(0, 0, 0); font-family: Helvetica; font-size: 11px; font-style: normal; font-variant-ligatures: normal; font-variant-caps: normal; font-weight: 400; letter-spacing: normal; orphans: 2; text-align: left; text-indent: 0px; text-transform: none; widows: 2; word-spacing: 0px; -webkit-text-stroke-width: 0px; background-color: rgb(255, 255, 255); text-decoration-thickness: initial; text-decoration-style: initial; text-decoration-color: initial; float: none; display: inline !important;&quot;&gt;7-Enregistrer la réservation dans la base de données&lt;/span&gt;" style="text;whiteSpace=wrap;html=1;" vertex="1" parent="1">
          <mxGeometry x="240" y="480" width="280" height="40" as="geometry" />
        </mxCell>
        <mxCell id="lPSIOjnodYMiK2jASAIS-18" value="" style="endArrow=block;dashed=1;endFill=0;endSize=12;html=1;rounded=0;" edge="1" parent="1">
          <mxGeometry width="160" relative="1" as="geometry">
            <mxPoint x="570" y="610" as="sourcePoint" />
            <mxPoint x="150.5" y="610" as="targetPoint" />
            <Array as="points" />
          </mxGeometry>
        </mxCell>
      </root>
    </mxGraphModel>
  </diagram>
</mxfile>
